#!OML:ASF E:\emotionWalksFemale\Project 1\Capture day 1\Session 1\Female1.ASF
:FULLY-SPECIFIED
:DEGREES
3101
root 5.88203 15.2806 40.0833 2.32323 -175.499 365.402
lowerback 3.59608 -2.92379 -4.69486
upperback -5.37083 -5.00638 -3.67802
thorax -7.61439 -2.51369 -0.714133
lowerneck -6.27645 -2.0995 -7.85087
upperneck 9.8281 -3.00193 12.1853
head 4.25429 -0.993962 4.9154
rclavicle 5.96354e-014 -2.54444e-014
rhumerus -48.6702 -10.5684 -52.4777
rradius 37.8876
rwrist 5.97174
rhand -10.1435 -48.4908
rfingers 7.12502
rthumb -164.155 -617.862
lclavicle 5.96354e-014 -2.54444e-014
lhumerus -21.7033 12.1201 48.4508
lradius 41.238
lwrist -7.02543
lhand -17.2897 -36.2723
lfingers 7.12502
lthumb 8.95582 -6.48235
rfemur -16.7118 -0.434468 28.6541
rtibia 39.8297
rfoot -16.124 -8.44635
rtoes 1.01988
lfemur -3.59663 -27.811 -22.6261
ltibia 26.1553
lfoot -43.4796 22.8903
ltoes 17.8831
3102
root 5.85542 15.2932 40.1212 2.73499 -176.502 366.507
lowerback 3.43098 -3.00606 -3.66113
upperback -5.49361 -5.00008 -3.40386
thorax -7.70145 -2.55132 -1.00475
lowerneck -6.26497 -1.6503 -7.37265
upperneck 9.55736 -2.41106 12.1316
head 4.10297 -0.694505 4.84779
rclavicle -3.97569e-016 1.74931e-014
rhumerus -49.0625 -10.5896 -53.0824
rradius 37.8975
rwrist 5.9385
rhand -10.4566 -48.9025
rfingers 7.12502
rthumb -164.456 -618.298
lclavicle -3.97569e-016 1.74931e-014
lhumerus -21.0714 12.0035 49.4032
lradius 41.2204
lwrist -7.97978
lhand -17.4557 -36.5696
lfingers 7.12502
lthumb 8.79559 -6.77287
rfemur -17.6397 -0.933899 29.8963
rtibia 39.9922
rfoot -16.3922 -8.88695
rtoes 4.46852
lfemur -4.12906 -27.709 -21.3269
ltibia 26.0529
lfoot -44.3014 22.9591
ltoes 19.9468
3103
root 5.8334 15.2913 40.139 2.45909 -177.431 366.13
lowerback 3.67916 -3.00161 -4.23093
upperback -5.37732 -5.05561 -3.48913
thorax -7.6849 -2.55021 -0.762088
lowerneck -6.0651 -1.24468 -7.0948
upperneck 9.28958 -1.86875 12.0604
head 3.93015 -0.434232 4.8038
rclavicle -2.54444e-014 1.90833e-014
rhumerus -49.6134 -10.2887 -53.6333
rradius 38.0927
rwrist 5.61651
rhand -10.6387 -49.15
rfingers 7.12502
rthumb -164.632 -618.559
lclavicle -2.54444e-014 1.90833e-014
lhumerus -20.4847 11.5789 50.6136
lradius 41.2427
lwrist -8.60271
lhand -17.02 -36.5584
lfingers 7.12502
lthumb 9.216 -6.7798
rfemur -17.6918 -1.86497 29.5049
rtibia 40.3877
rfoot -16.6548 -9.61434
rtoes 6.87722
lfemur -3.43923 -27.5607 -22.1782
ltibia 25.6973
lfoot -44.7856 23.3899
ltoes 20.3232
3104
root 5.81199 15.2898 40.1738 2.85434 -178.413 366.406
lowerback 3.60289 -3.04143 -4.16754
upperback -5.56292 -5.10392 -3.27897
thorax -7.82489 -2.56977 -0.571513
lowerneck -5.93143 -0.860846 -6.97171
upperneck 9.14798 -1.35066 11.9945
head 3.81173 -0.187406 4.78621
rclavicle -3.22031e-014 -4.77083e-015
rhumerus -49.9849 -9.42532 -54.4025
rradius 38.1766
rwrist 4.75996
rhand -11.0434 -48.9972
rfingers 7.12502
rthumb -165.021 -618.435
lclavicle -3.22031e-014 -4.77083e-015
lhumerus -20.0634 11.0244 51.758
lradius 41.2675
lwrist -8.85482
lhand -16.2577 -36.6623
lfingers 7.12502
lthumb 9.95159 -6.91749
rfemur -18.5003 -2.27723 29.9131
rtibia 40.5759
rfoot -16.5763 -10.8275
rtoes 7.19949
lfemur -3.97052 -27.2146 -21.7795
ltibia 25.6902
lfoot -45.0766 23.6356
ltoes 21.3208
3105
root 5.78377 15.2862 40.1922 2.73522 -179.154 365.749
lowerback 3.71202 -3.14927 -4.88735
upperback -5.52951 -5.33844 -3.37883
thorax -7.80308 -2.65533 -0.25046
lowerneck -5.82375 -0.368701 -6.5685
upperneck 9.14022 -0.689639 11.4931
head 3.72358 0.117872 4.59066
rclavicle -2.94201e-014 -9.54166e-014
rhumerus -50.2334 -8.66952 -55.0776
rradius 37.8997
rwrist 4.72493
rhand -10.8658 -48.8314
rfingers 7.12502
rthumb -164.85 -618.257
lclavicle -2.94201e-014 -9.54166e-014
lhumerus -19.6718 10.5821 52.7349
lradius 41.2646
lwrist -8.66596
lhand -15.7196 -36.9707
lfingers 7.12502
lthumb 10.4706 -7.25144
rfemur -18.6234 -3.20707 29.174
rtibia 40.8434
rfoot -17.1078 -11.3186
rtoes 5.78436
lfemur -3.62689 -26.8647 -22.7973
ltibia 25.5095
lfoot -45.312 23.9565
ltoes 21.6872
3106
root 5.74625 15.2722 40.1881 2.26359 -180.454 365.585
lowerback 3.57873 -3.6688 -4.91909
upperback -5.32427 -5.08365 -3.43989
thorax -7.47552 -2.14827 -0.393279
lowerneck -5.89875 -0.0218058 -6.0454
upperneck 9.16521 -0.238166 11.1185
head 3.70167 0.339879 4.40631
rclavicle -1.86858e-014 2.38542e-014
rhumerus -50.631 -7.80884 -56.0803
rradius 37.9344
rwrist 4.80584
rhand -10.6966 -48.5819
rfingers 7.12502
rthumb -164.687 -617.995
lclavicle -1.86858e-014 2.38542e-014
lhumerus -19.3128 9.65484 53.7308
lradius 41.3712
lwrist -8.70235
lhand -16.3686 -36.1541
lfingers 7.12502
lthumb 9.84453 -6.40429
rfemur -18.2888 -3.70835 28.8085
rtibia 41.0413
rfoot -17.6464 -11.4856
rtoes 5.05556
lfemur -2.6097 -26.9449 -23.7792
ltibia 25.3666
lfoot -46.6929 24.393
ltoes 23.8873
3107
root 5.72387 15.264 40.2002 1.83441 -181.548 366.256
lowerback 3.7478 -3.62159 -4.24581
upperback -5.10718 -5.01543 -3.27648
thorax -7.38175 -2.17495 -0.58903
lowerneck -5.66768 0.331794 -5.7802
upperneck 8.90138 0.23809 10.9179
head 3.54232 0.55905 4.31386
rclavicle -5.40694e-014 6.52014e-014
rhumerus -50.6538 -7.47396 -56.783
rradius 37.3449
rwrist 5.33576
rhand -11.0471 -48.3965
rfingers 7.12502
rthumb -165.025 -617.835
lclavicle -5.40694e-014 6.52014e-014
lhumerus -18.832 9.01612 54.7756
lradius 41.356
lwrist -8.90394
lhand -15.7616 -36.4438
lfingers 7.12502
lthumb 10.4302 -6.72253
rfemur -17.9702 -3.91151 29.4222
rtibia 41.1558
rfoot -17.8662 -12.0248
rtoes 6.27062
lfemur -1.76454 -26.8087 -23.5978
ltibia 25.1267
lfoot -47.6713 24.4349
ltoes 26.2636
3108
root 5.70022 15.2734 40.2249 2.18509 -182.391 365.832
lowerback 3.49855 -3.72217 -4.66648
upperback -5.24562 -5.14745 -3.31937
thorax -7.35227 -2.20667 -0.404755
lowerneck -5.74415 0.666641 -5.37796
upperneck 9.0824 0.678496 10.4554
head 3.57554 0.769545 4.12432
rclavicle -6.59965e-014 -1.27222e-014
rhumerus -50.808 -6.99748 -57.2172
rradius 36.6225
rwrist 6.80283
rhand -10.1588 -48.0956
rfingers 7.12502
rthumb -164.169 -617.468
lclavicle -6.59965e-014 -1.27222e-014
lhumerus -18.4497 8.25074 55.9103
lradius 41.1911
lwrist -9.60379
lhand -15.8819 -36.0823
lfingers 7.12502
lthumb 10.3141 -6.35526
rfemur -18.6404 -4.3718 28.9039
rtibia 41.3106
rfoot -17.8176 -12.3746
rtoes 4.98408
lfemur -2.07512 -26.6593 -24.0539
ltibia 24.9144
lfoot -48.0735 24.7381
ltoes 27.5927
3109
root 5.67093 15.2664 40.2275 1.70609 -183.477 366.029
lowerback 3.76463 -3.65665 -4.36726
upperback -5.11125 -5.07853 -3.27531
thorax -7.38502 -2.20163 -0.513656
lowerneck -5.84825 1.017 -5.06496
upperneck 9.31277 1.13315 10.243
head 3.62849 1.00202 4.03033
rclavicle 2.90226e-014 3.81667e-014
rhumerus -51.0486 -6.14008 -58.0504
rradius 36.0254
rwrist 7.7649
rhand -10.9047 -47.9638
rfingers 7.12502
rthumb -164.888 -617.392
lclavicle 2.90226e-014 3.81667e-014
lhumerus -18.4349 7.40379 56.8601
lradius 41.3764
lwrist -10.0048
lhand -16.1058 -36.4936
lfingers 7.12502
lthumb 10.098 -6.75586
rfemur -18.2403 -4.72597 28.8939
rtibia 41.3739
rfoot -17.9987 -12.3563
rtoes 2.61086
lfemur -1.16541 -26.9822 -24.5623
ltibia 24.7856
lfoot -49.2131 25.3038
ltoes 29.7353
3110
root 5.64403 15.2693 40.2383 1.78884 -184.359 365.926
lowerback 3.59117 -3.68122 -4.34046
upperback -5.12815 -5.09676 -3.31217
thorax -7.30786 -2.21374 -0.575766
lowerneck -6.03307 1.32654 -4.47112
upperneck 9.60999 1.52448 9.76712
head 3.72817 1.2018 3.80788
rclavicle -6.71892e-014 -6.04305e-014
rhumerus -51.3401 -5.35188 -58.955
rradius 35.6463
rwrist 8.79878
rhand -11.8044 -49.0183
rfingers 7.12502
rthumb -165.755 -618.51
lclavicle -6.71892e-014 -6.04305e-014
lhumerus -18.5863 6.55606 57.8026
lradius 41.793
lwrist -10.5003
lhand -16.1841 -36.9872
lfingers 7.12502
lthumb 10.0225 -7.24581
rfemur -18.5422 -4.91806 28.5667
rtibia 41.5276
rfoot -18.311 -12.1276
rtoes 2.91165
lfemur -1.05132 -26.9078 -24.8786
ltibia 24.5173
lfoot -49.596 25.5862
ltoes 31.2491
3111
root 5.61501 15.2546 40.2417 1.44563 -185.566 365.884
lowerback 3.64394 -3.59562 -4.27288
upperback -4.95363 -4.99338 -3.26985
thorax -7.15431 -2.18087 -0.577275
lowerneck -6.4361 1.62483 -4.12034
upperneck 9.91134 1.91923 9.25113
head 3.86767 1.39068 3.61829
rclavicle -4.8901e-014 1.90833e-014
rhumerus -51.4293 -4.65156 -59.5478
rradius 35.3367
rwrist 10.4078
rhand -11.3664 -49.0619
rfingers 7.12502
rthumb -165.333 -618.523
lclavicle -4.8901e-014 1.90833e-014
lhumerus -18.3851 5.69084 58.9622
lradius 41.8832
lwrist -10.2992
lhand -16.2785 -37.025
lfingers 7.12502
lthumb 9.9315 -7.27926
rfemur -18.299 -5.0305 28.2891
rtibia 41.5336
rfoot -18.1302 -12.2104
rtoes 1.83171
lfemur -0.357809 -26.7501 -25.4874
ltibia 24.416
lfoot -50.6074 25.6831
ltoes 33.4887
3112
root 5.58978 15.2466 40.2494 1.31722 -186.691 365.823
lowerback 3.61085 -3.5871 -4.30289
upperback -4.88926 -4.98831 -3.10248
thorax -7.04778 -2.18361 -0.388931
lowerneck -6.73693 1.9576 -4.29123
upperneck 10.1119 2.38372 9.11645
head 3.94551 1.61002 3.63472
rclavicle -1.27222e-014 4.6118e-014
rhumerus -51.4033 -3.3044 -60.6952
rradius 35.2447
rwrist 10.7023
rhand -12.5295 -50.0945
rfingers 7.12502
rthumb -166.453 -619.634
lclavicle -1.27222e-014 4.6118e-014
lhumerus -18.8168 4.84277 60.1255
lradius 42.3613
lwrist -10.0812
lhand -16.1694 -37.2715
lfingers 7.12502
lthumb 10.0367 -7.53079
rfemur -18.3099 -5.10729 28.0241
rtibia 41.4841
rfoot -17.8793 -12.3011
rtoes 0.801925
lfemur -0.0680626 -26.164 -25.8352
ltibia 24.3606
lfoot -51.1023 25.7657
ltoes 34.5121
3113
root 5.56657 15.2478 40.2636 1.4529 -187.65 365.942
lowerback 3.39995 -3.59164 -4.12436
upperback -4.96864 -4.96922 -3.01148
thorax -7.0168 -2.18291 -0.404815
lowerneck -6.431 2.24619 -4.06684
upperneck 10.108 2.76654 8.93328
head 3.8725 1.79254 3.55244
rclavicle -3.65764e-014 -1.09729e-013
rhumerus -51.6059 -2.96976 -61.1519
rradius 34.7423
rwrist 12.8995
rhand -12.1097 -49.8701
rfingers 7.12502
rthumb -166.049 -619.382
lclavicle -3.65764e-014 -1.09729e-013
lhumerus -18.8727 4.067 61.0776
lradius 42.4559
lwrist -10.4653
lhand -15.9193 -37.6929
lfingers 7.12502
lthumb 10.278 -7.96401
rfemur -18.5863 -4.95596 27.96
rtibia 41.4199
rfoot -17.9829 -12.2849
rtoes 0.0020609
lfemur -0.238253 -25.3856 -25.7138
ltibia 24.3829
lfoot -51.225 25.7833
ltoes 34.4916
3114
root 5.54276 15.2484 40.2727 1.60708 -188.583 366.043
lowerback 3.01753 -3.56126 -3.79325
upperback -4.93595 -4.88386 -3.05335
thorax -6.79225 -2.166 -0.66187
lowerneck -6.79763 2.45481 -3.22711
upperneck 10.5152 3.00362 8.36363
head 4.06616 1.92505 3.26462
rclavicle 7.95139e-015 1.59028e-015
rhumerus -51.7892 -3.1208 -61.517
rradius 34.3258
rwrist 15.1955
rhand -11.5045 -49.0278
rfingers 7.12502
rthumb -165.466 -618.499
lclavicle 7.95139e-015 1.59028e-015
lhumerus -19.9164 1.73899 62.0313
lradius 43.9517
lwrist -9.63228
lhand -15.9996 -37.1512
lfingers 7.12502
lthumb 10.2005 -7.41853
rfemur -18.9091 -4.84749 27.8646
rtibia 41.4693
rfoot -17.9973 -12.6115
rtoes -2.64514
lfemur -0.368699 -24.8744 -25.6791
ltibia 24.3729
lfoot -51.7206 25.8576
ltoes 34.9609
